# xmcd
#
# Track frame offsets:
#	150
#	11337
#	26055
#	36235
#
# Disc length: 627 seconds
#
# Revision: 0
# Processed by: cddbd v1.5.1PL0 Copyright (c) Steve Scherf et al.
# Submitted via: dBpowerAMP V4.0
#
DISCID=26027104
DTITLE=KATE SIKORA - GRACE IN ROTATION
DYEAR=1900
DGENRE=
TTITLE0=Wonderful Princess
TTITLE1=Usually
TTITLE2=10 hours
TTITLE3=Windows
EXTD=
EXTT0=
EXTT1=
EXTT2=
EXTT3=
PLAYORDER=
